# xmcd
#
# Track frame offsets:
#	150
#	13298
#	27013
#	40413
#	52070
#	63813
#	77565
#	88570
#	99800
#	110753
#	123333
#	135918
#	148685
#	158358
#	169288
#	180388
#	194518
#	206988
#	219423
#	230948
#	244093
#	257240
#	269183
#	283085
#
# Disc length: 3956 seconds
#
# Revision: 7
# Processed by: cddbd v1.5.2PL0 Copyright (c) Steve Scherf et al.
# Submitted via: dBpowerAMP V4.0
#
DISCID=620f7218
DTITLE=Various Artist - Country USA - 1950
DYEAR=1950
DGENRE=Country
TTITLE0=Little Jimmy Dickens - Hillbilly Fever
TTITLE1=Red Foley - Birmingham Bounce
TTITLE2=Lefty Frizzell - If You've Got The Money I've Got The Time
TTITLE3=Hank Williams - My Bucket's Got A Hole In It
TTITLE4=Ernest Tubb - Throw Your Love My Way
TTITLE5=Stuart Hamblen - Remember Me (I'm The One Who Loves You)
TTITLE6=Eddy Arnold - Cuddle Buggin' Baby
TTITLE7=Margaret Whiting and Jimmy Wakely - The Gods Were Angry With Me
TTITLE8=Hank Williams - Moanin' The Blues
TTITLE9=Lefty Frizzell - I Love You A Thousand Ways
TTITLE10=Red Foley - Chattanoogie Shoe Shine Boy
TTITLE11=Hank Snow - I'm Moving On
TTITLE12=Tenessee Ernie Ford - Anticipation Blues
TTITLE13=Hank Williams - Why Don't You Love Me
TTITLE14=Eddy Arnold - The Lovebug Itch
TTITLE15=Ernest Tubb - Letters Have No Arms
TTITLE16=Leon Payne - I Love You Because
TTITLE17=Little Jimmy Dickens - A-Sleepin' At The Foot Of The Bed
TTITLE18=Red Foley - MISSISSIPPI
TTITLE19=Eddy Arnold - Take Me In Your Arms And Hold Me
TTITLE20=Elton Britt and Rosalie Allen - Quicksilver
TTITLE21=Hank Williams - Long Gone Lonesome Blues
TTITLE22=Tennessee Ernie Ford - Mule Train
TTITLE23=Red Foley and Ernest Tubb - Goodnight Irene
EXTD=
EXTT0=
EXTT1=
EXTT2=
EXTT3=
EXTT4=
EXTT5=
EXTT6=
EXTT7=
EXTT8=
EXTT9=
EXTT10=
EXTT11=
EXTT12=
EXTT13=
EXTT14=
EXTT15=
EXTT16=
EXTT17=
EXTT18=
EXTT19=
EXTT20=
EXTT21=
EXTT22=
EXTT23=
PLAYORDER=
